<svg xmlns="http://www.w3.org/2000/svg" viewBox="0 0 600 800">
  <rect width="600" height="800" fill="#FAF9F6"/>
  <g transform="translate(300, 250)">
    <path d="M -80 -100 Q -120 -80 -140 0 Q -120 80 -80 100 L -40 100 Q -70 80 -85 0 Q -70 -80 -40 -100 Z" fill="#0F4C5C"/>
    <path d="M 40 -100 Q 70 -80 85 0 Q 70 80 40 100 L 80 100 Q 120 80 140 0 Q 120 -80 80 -100 Z" fill="#D6A94A"/>
    <path d="M -40 -100 Q -10 -80 0 0 Q -10 80 -40 100 L 40 100 Q 10 80 0 0 Q 10 -80 40 -100 Z" fill="#FAF9F6"/>
  </g>
  <text x="300" y="450" font-family="Poppins, sans-serif" font-size="80" font-weight="600" fill="#0F4C5C" text-anchor="middle">andiamo</text>
  <text x="300" y="500" font-family="Poppins, sans-serif" font-size="28" font-weight="400" fill="#0F4C5C" text-anchor="middle">Italiano che ti porta.</text>
</svg>
